<svg xmlns="http://www.w3.org/2000/svg" viewBox="0 0 36 36" role="img" aria-labelledby="title">
  <title id="title">United States flag</title>
  <defs>
    <clipPath id="circle">
      <rect width="36" height="36" rx="18"/>
    </clipPath>
  </defs>
  <g clip-path="url(#circle)">
    <rect width="36" height="36" fill="#fff"/>
    <g fill="#b22234">
      <rect width="36" height="2.77" y="0"/>
      <rect width="36" height="2.77" y="5.54"/>
      <rect width="36" height="2.77" y="11.08"/>
      <rect width="36" height="2.77" y="16.62"/>
      <rect width="36" height="2.77" y="22.16"/>
      <rect width="36" height="2.77" y="27.7"/>
      <rect width="36" height="2.77" y="33.24"/>
    </g>
    <rect width="16" height="19.4" fill="#3c3b6e"/>
    <g fill="#fff">
      <circle cx="2.5" cy="2.5" r=".55"/>
      <circle cx="6" cy="2.5" r=".55"/>
      <circle cx="9.5" cy="2.5" r=".55"/>
      <circle cx="13" cy="2.5" r=".55"/>
      <circle cx="4.25" cy="5.2" r=".55"/>
      <circle cx="7.75" cy="5.2" r=".55"/>
      <circle cx="11.25" cy="5.2" r=".55"/>
      <circle cx="2.5" cy="7.9" r=".55"/>
      <circle cx="6" cy="7.9" r=".55"/>
      <circle cx="9.5" cy="7.9" r=".55"/>
      <circle cx="13" cy="7.9" r=".55"/>
      <circle cx="4.25" cy="10.6" r=".55"/>
      <circle cx="7.75" cy="10.6" r=".55"/>
      <circle cx="11.25" cy="10.6" r=".55"/>
      <circle cx="2.5" cy="13.3" r=".55"/>
      <circle cx="6" cy="13.3" r=".55"/>
      <circle cx="9.5" cy="13.3" r=".55"/>
      <circle cx="13" cy="13.3" r=".55"/>
      <circle cx="4.25" cy="16" r=".55"/>
      <circle cx="7.75" cy="16" r=".55"/>
      <circle cx="11.25" cy="16" r=".55"/>
    </g>
  </g>
  <rect width="36" height="36" rx="18" fill="none" stroke="#d4d4d8"/>
</svg>
